# xmcd CD database file
#
# Track frame offsets:
#	150
#	19906
#	34385
#	46835
#	64994
#	80071
#	94388
#	113128
#	131153
#	143212
#	158181
#	171103
#	188513
#	203647
#	219184
#	240049
#	254361
#	273922
#	291047
#	303290
#
# Disc length: 4228 seconds
#
# Revision: 1
# Processed by: cddbd v1.5.2PL0 Copyright (c) Steve Scherf et al.
# Submitted via: CDex 1.50beta10
#
DISCID=19108214
DTITLE=Various Artist - 20 Country Line Dance Hits 1
DYEAR=2008
DGENRE=Country
TTITLE0=The Boys And Me
TTITLE1=Girls With Guitars
TTITLE2=Talk Dirty To Me
TTITLE3=Don't Step Out Of Line
TTITLE4=That's What I Get For Losin' You
TTITLE5=Swamp Thing
TTITLE6=Back On The Streets
TTITLE7=Soft Touch
TTITLE8=XXX's and OOO's An American Girl
TTITLE9=Cotton Eyed Joe
TTITLE10=The Deadwood Stage
TTITLE11=Line King
TTITLE12=Nobody Wins
TTITLE13=Angel Of The Night
TTITLE14=Any Man Of Mine
TTITLE15=Meet Me On The Corner
TTITLE16=Wrong Train, Wrong Line
TTITLE17=Time Won't Let Me Slow Down
TTITLE18=When You Walk In The Room
TTITLE19=Duelling Banjos
EXTD=YEAR: 2008
EXTT0=
EXTT1=
EXTT2=
EXTT3=
EXTT4=
EXTT5=
EXTT6=
EXTT7=
EXTT8=
EXTT9=
EXTT10=
EXTT11=
EXTT12=
EXTT13=
EXTT14=
EXTT15=
EXTT16=
EXTT17=
EXTT18=
EXTT19=
PLAYORDER=
